<svg xmlns="http://www.w3.org/2000/svg" viewBox="0 0 120 120">
  <defs>
    <linearGradient id="g" x1="18" y1="10" x2="102" y2="112" gradientUnits="userSpaceOnUse">
      <stop stop-color="#ff2da0"/>
      <stop offset="1" stop-color="#7b1fa2"/>
    </linearGradient>
  </defs>
  <rect width="120" height="120" rx="28" fill="#18132b"/>
  <rect x="9" y="9" width="102" height="102" rx="26" fill="#18132b" stroke="#ff2da0" stroke-opacity=".38"/>
  <path d="M28 92V42L60 20L98 45V60L60 35L40 49V92H28Z" fill="url(#g)"/>
  <path d="M45 92V55C45 51 49 48 53 48V70H70C75 55 87 48 103 51V64C94 61 85 64 81 73C77 82 84 91 103 88V101C82 105 69 95 68 82H53V92H45Z" fill="url(#g)"/>
  <path d="M61 48H70V57H61V48ZM75 48H84V57H75V48ZM61 62H70V71H61V62ZM75 62H84V71H75V62Z" fill="#ff2da0"/>
</svg>
